<?xml version="1.0" encoding="UTF-8" standalone="no"?>
<!DOCTYPE svg PUBLIC "-//W3C//DTD SVG 1.1//EN"
 "http://www.w3.org/Graphics/SVG/1.1/DTD/svg11.dtd">
<!-- Generated by graphviz version 2.43.0 (0)
 -->
<!-- Title: circuit Pages: 1 -->
<svg width="1792pt" height="980pt"
 viewBox="0.00 0.00 1792.43 980.00" xmlns="http://www.w3.org/2000/svg" xmlns:xlink="http://www.w3.org/1999/xlink">
<g id="graph0" class="graph" transform="scale(1 1) rotate(0) translate(4 976)">
<title>circuit</title>
<polygon fill="white" stroke="transparent" points="-4,4 -4,-976 1788.43,-976 1788.43,4 -4,4"/>
<!-- ds -->
<g id="node1" class="node">
<title>ds</title>
<ellipse fill="none" stroke="blue" cx="247" cy="-954" rx="27" ry="18"/>
<text text-anchor="middle" x="247" y="-950.3" font-family="Times,serif" font-size="14.00">ds</text>
</g>
<!-- jk -->
<g id="node5" class="node">
<title>jk</title>
<ellipse fill="none" stroke="red" cx="397" cy="-882" rx="27" ry="18"/>
<text text-anchor="middle" x="397" y="-878.3" font-family="Times,serif" font-size="14.00">jk</text>
</g>
<!-- ds&#45;&gt;jk -->
<g id="edge5" class="edge">
<title>ds&#45;&gt;jk</title>
<path fill="none" stroke="black" d="M266.6,-941.44C291.58,-928.83 334.67,-908.69 364.53,-895.66"/>
<polygon fill="black" stroke="black" points="365.93,-898.87 373.72,-891.7 363.16,-892.44 365.93,-898.87"/>
</g>
<!-- ft -->
<g id="node10" class="node">
<title>ft</title>
<ellipse fill="none" stroke="red" cx="188" cy="-450" rx="27" ry="18"/>
<text text-anchor="middle" x="188" y="-446.3" font-family="Times,serif" font-size="14.00">ft</text>
</g>
<!-- ds&#45;&gt;ft -->
<g id="edge4" class="edge">
<title>ds&#45;&gt;ft</title>
<path fill="none" stroke="black" d="M262.9,-939.27C274.5,-928.94 290.35,-914.19 303,-900 355.29,-841.36 376,-817.57 376,-739 376,-739 376,-739 376,-593 376,-517.11 277.24,-476.63 222.88,-460.1"/>
<polygon fill="black" stroke="black" points="223.55,-456.65 212.96,-457.2 221.58,-463.37 223.55,-456.65"/>
</g>
<!-- qg -->
<g id="node15" class="node">
<title>qg</title>
<ellipse fill="none" stroke="red" cx="245" cy="-666" rx="27" ry="18"/>
<text text-anchor="middle" x="245" y="-662.3" font-family="Times,serif" font-size="14.00">qg</text>
</g>
<!-- ds&#45;&gt;qg -->
<g id="edge1" class="edge">
<title>ds&#45;&gt;qg</title>
<path fill="none" stroke="black" d="M246.88,-935.97C246.55,-888.29 245.6,-753.18 245.19,-694.63"/>
<polygon fill="black" stroke="black" points="248.69,-694.28 245.12,-684.31 241.69,-694.33 248.69,-694.28"/>
</g>
<!-- dz -->
<g id="node17" class="node">
<title>dz</title>
<ellipse fill="none" stroke="red" cx="131" cy="-378" rx="27" ry="18"/>
<text text-anchor="middle" x="131" y="-374.3" font-family="Times,serif" font-size="14.00">dz</text>
</g>
<!-- ds&#45;&gt;dz -->
<g id="edge7" class="edge">
<title>ds&#45;&gt;dz</title>
<path fill="none" stroke="black" d="M225.63,-942.66C188.04,-922.81 114,-875.52 114,-811 114,-811 114,-811 114,-521 114,-480.71 120.83,-434.44 125.83,-405.96"/>
<polygon fill="black" stroke="black" points="129.3,-406.43 127.64,-395.97 122.42,-405.19 129.3,-406.43"/>
</g>
<!-- bm -->
<g id="node31" class="node">
<title>bm</title>
<ellipse fill="none" stroke="blue" cx="865" cy="-810" rx="27" ry="18"/>
<text text-anchor="middle" x="865" y="-806.3" font-family="Times,serif" font-size="14.00">bm</text>
</g>
<!-- ds&#45;&gt;bm -->
<g id="edge3" class="edge">
<title>ds&#45;&gt;bm</title>
<path fill="none" stroke="black" d="M274.03,-951.93C364.4,-948.08 655.16,-933.34 742,-900 781.62,-884.79 820.06,-853.51 843.13,-832.38"/>
<polygon fill="black" stroke="black" points="845.71,-834.76 850.63,-825.38 840.93,-829.65 845.71,-834.76"/>
</g>
<!-- qs -->
<g id="node33" class="node">
<title>qs</title>
<ellipse fill="none" stroke="red" cx="321" cy="-810" rx="27" ry="18"/>
<text text-anchor="middle" x="321" y="-806.3" font-family="Times,serif" font-size="14.00">qs</text>
</g>
<!-- ds&#45;&gt;qs -->
<g id="edge6" class="edge">
<title>ds&#45;&gt;qs</title>
<path fill="none" stroke="black" d="M257.65,-937.07C264.39,-926.71 273.11,-912.79 280,-900 291.17,-879.28 302.24,-854.95 310.06,-836.98"/>
<polygon fill="black" stroke="black" points="313.31,-838.27 314.05,-827.71 306.88,-835.51 313.31,-838.27"/>
</g>
<!-- db -->
<g id="node36" class="node">
<title>db</title>
<ellipse fill="none" stroke="red" cx="283" cy="-738" rx="27" ry="18"/>
<text text-anchor="middle" x="283" y="-734.3" font-family="Times,serif" font-size="14.00">db</text>
</g>
<!-- ds&#45;&gt;db -->
<g id="edge2" class="edge">
<title>ds&#45;&gt;db</title>
<path fill="none" stroke="black" d="M249.89,-935.85C256.13,-898.74 270.93,-810.75 278.45,-766.05"/>
<polygon fill="black" stroke="black" points="281.94,-766.38 280.15,-755.94 275.04,-765.22 281.94,-766.38"/>
</g>
<!-- cj -->
<g id="node2" class="node">
<title>cj</title>
<ellipse fill="none" stroke="red" cx="1014" cy="-378" rx="27" ry="18"/>
<text text-anchor="middle" x="1014" y="-374.3" font-family="Times,serif" font-size="14.00">cj</text>
</g>
<!-- pg -->
<g id="node38" class="node">
<title>pg</title>
<ellipse fill="none" stroke="red" cx="1165" cy="-306" rx="27" ry="18"/>
<text text-anchor="middle" x="1165" y="-302.3" font-family="Times,serif" font-size="14.00">pg</text>
</g>
<!-- cj&#45;&gt;pg -->
<g id="edge8" class="edge">
<title>cj&#45;&gt;pg</title>
<path fill="none" stroke="black" d="M1035.3,-366.9C1040.13,-364.62 1045.24,-362.22 1050,-360 1078.41,-346.74 1110.86,-331.81 1134.03,-321.18"/>
<polygon fill="black" stroke="black" points="1135.72,-324.25 1143.35,-316.9 1132.8,-317.89 1135.72,-324.25"/>
</g>
<!-- xz -->
<g id="node3" class="node">
<title>xz</title>
<ellipse fill="none" stroke="red" cx="74" cy="-234" rx="27" ry="18"/>
<text text-anchor="middle" x="74" y="-230.3" font-family="Times,serif" font-size="14.00">xz</text>
</g>
<!-- xz&#45;&gt;ds -->
<g id="edge10" class="edge">
<title>xz&#45;&gt;ds</title>
<path fill="none" stroke="black" d="M66.89,-251.7C56.4,-277.89 38,-330.46 38,-377 38,-811 38,-811 38,-811 38,-856.59 53.75,-871.08 89,-900 124.17,-928.85 175.74,-942.26 210.3,-948.3"/>
<polygon fill="black" stroke="black" points="210.01,-951.8 220.44,-949.95 211.13,-944.89 210.01,-951.8"/>
</g>
<!-- sx -->
<g id="node22" class="node">
<title>sx</title>
<ellipse fill="none" stroke="red" cx="74" cy="-162" rx="27" ry="18"/>
<text text-anchor="middle" x="74" y="-158.3" font-family="Times,serif" font-size="14.00">sx</text>
</g>
<!-- xz&#45;&gt;sx -->
<g id="edge9" class="edge">
<title>xz&#45;&gt;sx</title>
<path fill="none" stroke="black" d="M74,-215.7C74,-207.98 74,-198.71 74,-190.11"/>
<polygon fill="black" stroke="black" points="77.5,-190.1 74,-180.1 70.5,-190.1 77.5,-190.1"/>
</g>
<!-- kd -->
<g id="node4" class="node">
<title>kd</title>
<ellipse fill="none" stroke="red" cx="1427" cy="-306" rx="27" ry="18"/>
<text text-anchor="middle" x="1427" y="-302.3" font-family="Times,serif" font-size="14.00">kd</text>
</g>
<!-- cs -->
<g id="node19" class="node">
<title>cs</title>
<ellipse fill="none" stroke="blue" cx="1505" cy="-810" rx="27" ry="18"/>
<text text-anchor="middle" x="1505" y="-806.3" font-family="Times,serif" font-size="14.00">cs</text>
</g>
<!-- kd&#45;&gt;cs -->
<g id="edge11" class="edge">
<title>kd&#45;&gt;cs</title>
<path fill="none" stroke="black" d="M1423.64,-323.97C1418.69,-350.52 1410,-403.56 1410,-449 1410,-667 1410,-667 1410,-667 1410,-717.48 1451.99,-763.61 1480.14,-788.85"/>
<polygon fill="black" stroke="black" points="1478.17,-791.78 1488.02,-795.7 1482.77,-786.5 1478.17,-791.78"/>
</g>
<!-- jg -->
<g id="node30" class="node">
<title>jg</title>
<ellipse fill="none" stroke="red" cx="1408" cy="-234" rx="27" ry="18"/>
<text text-anchor="middle" x="1408" y="-230.3" font-family="Times,serif" font-size="14.00">jg</text>
</g>
<!-- kd&#45;&gt;jg -->
<g id="edge12" class="edge">
<title>kd&#45;&gt;jg</title>
<path fill="none" stroke="black" d="M1422.4,-288.05C1420.25,-280.14 1417.65,-270.54 1415.24,-261.69"/>
<polygon fill="black" stroke="black" points="1418.55,-260.52 1412.56,-251.79 1411.8,-262.36 1418.55,-260.52"/>
</g>
<!-- jk&#45;&gt;ds -->
<g id="edge13" class="edge">
<title>jk&#45;&gt;ds</title>
<path fill="none" stroke="black" d="M377.14,-894.69C352.15,-907.3 309.32,-927.31 279.55,-940.3"/>
<polygon fill="black" stroke="black" points="277.81,-937.24 270.01,-944.42 280.58,-943.67 277.81,-937.24"/>
</g>
<!-- jk&#45;&gt;qs -->
<g id="edge14" class="edge">
<title>jk&#45;&gt;qs</title>
<path fill="none" stroke="black" d="M381.62,-866.83C370.8,-856.87 356.14,-843.37 343.95,-832.14"/>
<polygon fill="black" stroke="black" points="346.08,-829.34 336.36,-825.14 341.34,-834.49 346.08,-829.34"/>
</g>
<!-- nx -->
<g id="node6" class="node">
<title>nx</title>
<ellipse fill="none" stroke="red" cx="1222" cy="-810" rx="27" ry="18"/>
<text text-anchor="middle" x="1222" y="-806.3" font-family="Times,serif" font-size="14.00">nx</text>
</g>
<!-- qr -->
<g id="node46" class="node">
<title>qr</title>
<ellipse fill="none" stroke="red" cx="1222" cy="-738" rx="27" ry="18"/>
<text text-anchor="middle" x="1222" y="-734.3" font-family="Times,serif" font-size="14.00">qr</text>
</g>
<!-- nx&#45;&gt;qr -->
<g id="edge15" class="edge">
<title>nx&#45;&gt;qr</title>
<path fill="none" stroke="black" d="M1222,-791.7C1222,-783.98 1222,-774.71 1222,-766.11"/>
<polygon fill="black" stroke="black" points="1225.5,-766.1 1222,-756.1 1218.5,-766.1 1225.5,-766.1"/>
</g>
<!-- dt -->
<g id="node7" class="node">
<title>dt</title>
<ellipse fill="none" stroke="blue" cx="678" cy="-666" rx="27" ry="18"/>
<text text-anchor="middle" x="678" y="-662.3" font-family="Times,serif" font-size="14.00">dt</text>
</g>
<!-- mg -->
<g id="node21" class="node">
<title>mg</title>
<ellipse fill="none" stroke="red" cx="706" cy="-882" rx="27" ry="18"/>
<text text-anchor="middle" x="706" y="-878.3" font-family="Times,serif" font-size="14.00">mg</text>
</g>
<!-- dt&#45;&gt;mg -->
<g id="edge17" class="edge">
<title>dt&#45;&gt;mg</title>
<path fill="none" stroke="black" d="M684.01,-683.64C692.39,-720.37 704.24,-808.67 707.11,-853.66"/>
<polygon fill="black" stroke="black" points="703.63,-854.04 707.63,-863.85 710.62,-853.68 703.63,-854.04"/>
</g>
<!-- bx -->
<g id="node23" class="node">
<title>bx</title>
<ellipse fill="none" stroke="red" cx="773" cy="-594" rx="27" ry="18"/>
<text text-anchor="middle" x="773" y="-590.3" font-family="Times,serif" font-size="14.00">bx</text>
</g>
<!-- dt&#45;&gt;bx -->
<g id="edge16" class="edge">
<title>dt&#45;&gt;bx</title>
<path fill="none" stroke="black" d="M695.42,-652.16C709.93,-641.47 730.79,-626.1 747.23,-613.99"/>
<polygon fill="black" stroke="black" points="749.39,-616.74 755.36,-607.99 745.24,-611.11 749.39,-616.74"/>
</g>
<!-- cl -->
<g id="node42" class="node">
<title>cl</title>
<ellipse fill="none" stroke="blue" cx="866" cy="-522" rx="27" ry="18"/>
<text text-anchor="middle" x="866" y="-518.3" font-family="Times,serif" font-size="14.00">cl</text>
</g>
<!-- dt&#45;&gt;cl -->
<g id="edge19" class="edge">
<title>dt&#45;&gt;cl</title>
<path fill="none" stroke="black" d="M705.09,-663.91C741.43,-660.95 805.59,-650.25 842,-612 857.73,-595.47 863.39,-569.74 865.31,-550.19"/>
<polygon fill="black" stroke="black" points="868.81,-550.29 866.03,-540.06 861.83,-549.79 868.81,-550.29"/>
</g>
<!-- qb -->
<g id="node51" class="node">
<title>qb</title>
<ellipse fill="none" stroke="red" cx="735" cy="-522" rx="27" ry="18"/>
<text text-anchor="middle" x="735" y="-518.3" font-family="Times,serif" font-size="14.00">qb</text>
</g>
<!-- dt&#45;&gt;qb -->
<g id="edge18" class="edge">
<title>dt&#45;&gt;qb</title>
<path fill="none" stroke="black" d="M684.65,-648.43C694.48,-623.96 712.96,-577.91 724.59,-548.94"/>
<polygon fill="black" stroke="black" points="727.92,-550.05 728.39,-539.46 721.42,-547.44 727.92,-550.05"/>
</g>
<!-- zb -->
<g id="node52" class="node">
<title>zb</title>
<ellipse fill="none" stroke="red" cx="621" cy="-306" rx="27" ry="18"/>
<text text-anchor="middle" x="621" y="-302.3" font-family="Times,serif" font-size="14.00">zb</text>
</g>
<!-- dt&#45;&gt;zb -->
<g id="edge20" class="edge">
<title>dt&#45;&gt;zb</title>
<path fill="none" stroke="black" d="M664.08,-650.16C642.65,-625.68 604,-574.43 604,-523 604,-523 604,-523 604,-449 604,-408.71 610.83,-362.44 615.83,-333.96"/>
<polygon fill="black" stroke="black" points="619.3,-334.43 617.64,-323.97 612.42,-333.19 619.3,-334.43"/>
</g>
<!-- vx -->
<g id="node8" class="node">
<title>vx</title>
<ellipse fill="none" stroke="red" cx="1166" cy="-18" rx="27" ry="18"/>
<text text-anchor="middle" x="1166" y="-14.3" font-family="Times,serif" font-size="14.00">vx</text>
</g>
<!-- bd -->
<g id="node27" class="node">
<title>bd</title>
<ellipse fill="none" stroke="blue" cx="1173" cy="-450" rx="27" ry="18"/>
<text text-anchor="middle" x="1173" y="-446.3" font-family="Times,serif" font-size="14.00">bd</text>
</g>
<!-- vx&#45;&gt;bd -->
<g id="edge21" class="edge">
<title>vx&#45;&gt;bd</title>
<path fill="none" stroke="black" d="M1155.2,-34.81C1138.93,-60.21 1110,-112.24 1110,-161 1110,-235 1110,-235 1110,-235 1110,-305.69 1142.03,-384.37 1160.41,-423.71"/>
<polygon fill="black" stroke="black" points="1157.3,-425.31 1164.76,-432.83 1163.62,-422.3 1157.3,-425.31"/>
</g>
<!-- pz -->
<g id="node9" class="node">
<title>pz</title>
<ellipse fill="none" stroke="red" cx="1203" cy="-666" rx="27" ry="18"/>
<text text-anchor="middle" x="1203" y="-662.3" font-family="Times,serif" font-size="14.00">pz</text>
</g>
<!-- rv -->
<g id="node57" class="node">
<title>rv</title>
<ellipse fill="none" stroke="red" cx="1148" cy="-594" rx="27" ry="18"/>
<text text-anchor="middle" x="1148" y="-590.3" font-family="Times,serif" font-size="14.00">rv</text>
</g>
<!-- pz&#45;&gt;rv -->
<g id="edge22" class="edge">
<title>pz&#45;&gt;rv</title>
<path fill="none" stroke="black" d="M1191.07,-649.81C1183.79,-640.55 1174.34,-628.52 1166.15,-618.09"/>
<polygon fill="black" stroke="black" points="1168.84,-615.86 1159.91,-610.16 1163.34,-620.18 1168.84,-615.86"/>
</g>
<!-- ft&#45;&gt;dz -->
<g id="edge23" class="edge">
<title>ft&#45;&gt;dz</title>
<path fill="none" stroke="black" d="M175.63,-433.81C168.09,-424.55 158.3,-412.52 149.81,-402.09"/>
<polygon fill="black" stroke="black" points="152.37,-399.7 143.34,-394.16 146.94,-404.12 152.37,-399.7"/>
</g>
<!-- gz -->
<g id="node11" class="node">
<title>gz</title>
<ellipse fill="none" stroke="red" cx="602" cy="-234" rx="27" ry="18"/>
<text text-anchor="middle" x="602" y="-230.3" font-family="Times,serif" font-size="14.00">gz</text>
</g>
<!-- gz&#45;&gt;dt -->
<g id="edge24" class="edge">
<title>gz&#45;&gt;dt</title>
<path fill="none" stroke="black" d="M594.89,-251.7C584.4,-277.89 566,-330.46 566,-377 566,-523 566,-523 566,-523 566,-577.47 617.44,-623.33 650.6,-647.23"/>
<polygon fill="black" stroke="black" points="648.8,-650.25 659,-653.11 652.81,-644.51 648.8,-650.25"/>
</g>
<!-- dx -->
<g id="node24" class="node">
<title>dx</title>
<ellipse fill="none" stroke="red" cx="602" cy="-162" rx="27" ry="18"/>
<text text-anchor="middle" x="602" y="-158.3" font-family="Times,serif" font-size="14.00">dx</text>
</g>
<!-- gz&#45;&gt;dx -->
<g id="edge25" class="edge">
<title>gz&#45;&gt;dx</title>
<path fill="none" stroke="black" d="M602,-215.7C602,-207.98 602,-198.71 602,-190.11"/>
<polygon fill="black" stroke="black" points="605.5,-190.1 602,-180.1 598.5,-190.1 605.5,-190.1"/>
</g>
<!-- ng -->
<g id="node12" class="node">
<title>ng</title>
<ellipse fill="none" stroke="red" cx="188" cy="-522" rx="27" ry="18"/>
<text text-anchor="middle" x="188" y="-518.3" font-family="Times,serif" font-size="14.00">ng</text>
</g>
<!-- ng&#45;&gt;ds -->
<g id="edge27" class="edge">
<title>ng&#45;&gt;ds</title>
<path fill="none" stroke="black" d="M180.89,-539.7C170.4,-565.89 152,-618.46 152,-665 152,-811 152,-811 152,-811 152,-861.48 193.99,-907.61 222.14,-932.85"/>
<polygon fill="black" stroke="black" points="220.17,-935.78 230.02,-939.7 224.77,-930.5 220.17,-935.78"/>
</g>
<!-- ng&#45;&gt;ft -->
<g id="edge26" class="edge">
<title>ng&#45;&gt;ft</title>
<path fill="none" stroke="black" d="M188,-503.7C188,-495.98 188,-486.71 188,-478.11"/>
<polygon fill="black" stroke="black" points="191.5,-478.1 188,-468.1 184.5,-478.1 191.5,-478.1"/>
</g>
<!-- sh -->
<g id="node13" class="node">
<title>sh</title>
<ellipse fill="none" stroke="red" cx="1579" cy="-666" rx="27" ry="18"/>
<text text-anchor="middle" x="1579" y="-662.3" font-family="Times,serif" font-size="14.00">sh</text>
</g>
<!-- kn -->
<g id="node14" class="node">
<title>kn</title>
<ellipse fill="none" stroke="red" cx="1541" cy="-594" rx="27" ry="18"/>
<text text-anchor="middle" x="1541" y="-590.3" font-family="Times,serif" font-size="14.00">kn</text>
</g>
<!-- sh&#45;&gt;kn -->
<g id="edge28" class="edge">
<title>sh&#45;&gt;kn</title>
<path fill="none" stroke="black" d="M1570.19,-648.76C1565.58,-640.28 1559.84,-629.71 1554.68,-620.2"/>
<polygon fill="black" stroke="black" points="1557.61,-618.27 1549.77,-611.15 1551.46,-621.61 1557.61,-618.27"/>
</g>
<!-- sh&#45;&gt;cs -->
<g id="edge29" class="edge">
<title>sh&#45;&gt;cs</title>
<path fill="none" stroke="black" d="M1572.05,-683.71C1564.34,-701.82 1551.24,-731.44 1538,-756 1532.89,-765.49 1526.76,-775.6 1521.19,-784.43"/>
<polygon fill="black" stroke="black" points="1518.1,-782.77 1515.65,-793.07 1523.99,-786.55 1518.1,-782.77"/>
</g>
<!-- kn&#45;&gt;cs -->
<g id="edge31" class="edge">
<title>kn&#45;&gt;cs</title>
<path fill="none" stroke="black" d="M1538.15,-611.94C1531.93,-648.92 1517.08,-737.2 1509.55,-781.97"/>
<polygon fill="black" stroke="black" points="1506.09,-781.41 1507.89,-791.85 1513,-782.57 1506.09,-781.41"/>
</g>
<!-- jc -->
<g id="node25" class="node">
<title>jc</title>
<ellipse fill="none" stroke="red" cx="1522" cy="-522" rx="27" ry="18"/>
<text text-anchor="middle" x="1522" y="-518.3" font-family="Times,serif" font-size="14.00">jc</text>
</g>
<!-- kn&#45;&gt;jc -->
<g id="edge30" class="edge">
<title>kn&#45;&gt;jc</title>
<path fill="none" stroke="black" d="M1536.4,-576.05C1534.25,-568.14 1531.65,-558.54 1529.24,-549.69"/>
<polygon fill="black" stroke="black" points="1532.55,-548.52 1526.56,-539.79 1525.8,-550.36 1532.55,-548.52"/>
</g>
<!-- ls -->
<g id="node32" class="node">
<title>ls</title>
<ellipse fill="none" stroke="red" cx="207" cy="-594" rx="27" ry="18"/>
<text text-anchor="middle" x="207" y="-590.3" font-family="Times,serif" font-size="14.00">ls</text>
</g>
<!-- qg&#45;&gt;ls -->
<g id="edge32" class="edge">
<title>qg&#45;&gt;ls</title>
<path fill="none" stroke="black" d="M236.19,-648.76C231.58,-640.28 225.84,-629.71 220.68,-620.2"/>
<polygon fill="black" stroke="black" points="223.61,-618.27 215.77,-611.15 217.46,-621.61 223.61,-618.27"/>
</g>
<!-- sb -->
<g id="node16" class="node">
<title>sb</title>
<ellipse fill="none" stroke="red" cx="1505" cy="-882" rx="27" ry="18"/>
<text text-anchor="middle" x="1505" y="-878.3" font-family="Times,serif" font-size="14.00">sb</text>
</g>
<!-- sb&#45;&gt;cs -->
<g id="edge34" class="edge">
<title>sb&#45;&gt;cs</title>
<path fill="none" stroke="black" d="M1499.16,-864.41C1498.3,-856.51 1498.05,-846.85 1498.41,-837.94"/>
<polygon fill="black" stroke="black" points="1501.9,-838.18 1499.12,-827.96 1494.92,-837.68 1501.9,-838.18"/>
</g>
<!-- lp -->
<g id="node55" class="node">
<title>lp</title>
<ellipse fill="none" stroke="red" cx="1727" cy="-738" rx="27" ry="18"/>
<text text-anchor="middle" x="1727" y="-734.3" font-family="Times,serif" font-size="14.00">lp</text>
</g>
<!-- sb&#45;&gt;lp -->
<g id="edge33" class="edge">
<title>sb&#45;&gt;lp</title>
<path fill="none" stroke="black" d="M1523.93,-868.89C1563.25,-843.74 1653.91,-785.75 1699.61,-756.52"/>
<polygon fill="black" stroke="black" points="1701.58,-759.41 1708.12,-751.08 1697.81,-753.52 1701.58,-759.41"/>
</g>
<!-- fg -->
<g id="node29" class="node">
<title>fg</title>
<ellipse fill="none" stroke="red" cx="93" cy="-306" rx="27" ry="18"/>
<text text-anchor="middle" x="93" y="-302.3" font-family="Times,serif" font-size="14.00">fg</text>
</g>
<!-- dz&#45;&gt;fg -->
<g id="edge35" class="edge">
<title>dz&#45;&gt;fg</title>
<path fill="none" stroke="black" d="M122.19,-360.76C117.58,-352.28 111.84,-341.71 106.68,-332.2"/>
<polygon fill="black" stroke="black" points="109.61,-330.27 101.77,-323.15 103.46,-333.61 109.61,-330.27"/>
</g>
<!-- dc -->
<g id="node18" class="node">
<title>dc</title>
<ellipse fill="none" stroke="red" cx="1067" cy="-882" rx="27" ry="18"/>
<text text-anchor="middle" x="1067" y="-878.3" font-family="Times,serif" font-size="14.00">dc</text>
</g>
<!-- dc&#45;&gt;nx -->
<g id="edge37" class="edge">
<title>dc&#45;&gt;nx</title>
<path fill="none" stroke="black" d="M1088.88,-871.12C1115.54,-859.08 1160.75,-838.66 1190.98,-825.01"/>
<polygon fill="black" stroke="black" points="1192.56,-828.14 1200.23,-820.83 1189.68,-821.76 1192.56,-828.14"/>
</g>
<!-- dc&#45;&gt;bd -->
<g id="edge36" class="edge">
<title>dc&#45;&gt;bd</title>
<path fill="none" stroke="black" d="M1063.03,-863.91C1059.25,-816.67 1065.56,-680.85 1103,-576 1116.23,-538.93 1137.34,-498.4 1153.26,-473.83"/>
<polygon fill="black" stroke="black" points="1156.16,-475.79 1158.86,-465.54 1150.36,-471.87 1156.16,-475.79"/>
</g>
<!-- cs&#45;&gt;sb -->
<g id="edge40" class="edge">
<title>cs&#45;&gt;sb</title>
<path fill="none" stroke="black" d="M1510.88,-827.96C1511.71,-835.83 1511.95,-845.37 1511.58,-854.19"/>
<polygon fill="black" stroke="black" points="1508.07,-854.18 1510.84,-864.41 1515.06,-854.69 1508.07,-854.18"/>
</g>
<!-- cs&#45;&gt;jc -->
<g id="edge41" class="edge">
<title>cs&#45;&gt;jc</title>
<path fill="none" stroke="black" d="M1503.2,-791.9C1499.53,-753.18 1492.49,-655.93 1505,-576 1506.38,-567.18 1508.98,-557.82 1511.74,-549.46"/>
<polygon fill="black" stroke="black" points="1515.1,-550.45 1515.11,-539.86 1508.49,-548.13 1515.1,-550.45"/>
</g>
<!-- cs&#45;&gt;jg -->
<g id="edge39" class="edge">
<title>cs&#45;&gt;jg</title>
<path fill="none" stroke="black" d="M1483.63,-798.66C1446.04,-778.81 1372,-731.52 1372,-667 1372,-667 1372,-667 1372,-377 1372,-335.55 1386.59,-289.32 1397.2,-261.2"/>
<polygon fill="black" stroke="black" points="1400.53,-262.29 1400.89,-251.7 1394,-259.75 1400.53,-262.29"/>
</g>
<!-- dr -->
<g id="node54" class="node">
<title>dr</title>
<ellipse fill="none" stroke="blue" cx="1131" cy="-666" rx="27" ry="18"/>
<text text-anchor="middle" x="1131" y="-662.3" font-family="Times,serif" font-size="14.00">dr</text>
</g>
<!-- cs&#45;&gt;dr -->
<g id="edge42" class="edge">
<title>cs&#45;&gt;dr</title>
<path fill="none" stroke="black" d="M1478.25,-807.38C1410.46,-802.83 1233.9,-788.14 1186,-756 1163.7,-741.04 1148.82,-713.69 1140.22,-693.24"/>
<polygon fill="black" stroke="black" points="1143.43,-691.85 1136.5,-683.84 1136.93,-694.42 1143.43,-691.85"/>
</g>
<!-- cs&#45;&gt;lp -->
<g id="edge38" class="edge">
<title>cs&#45;&gt;lp</title>
<path fill="none" stroke="black" d="M1529.86,-802.63C1565,-793.43 1631.03,-775.38 1686,-756 1689.12,-754.9 1692.36,-753.69 1695.57,-752.43"/>
<polygon fill="black" stroke="black" points="1697.07,-755.6 1705.04,-748.62 1694.46,-749.11 1697.07,-755.6"/>
</g>
<!-- tr -->
<g id="node20" class="node">
<title>tr</title>
<ellipse fill="none" stroke="red" cx="776" cy="-738" rx="27" ry="18"/>
<text text-anchor="middle" x="776" y="-734.3" font-family="Times,serif" font-size="14.00">tr</text>
</g>
<!-- tr&#45;&gt;dt -->
<g id="edge44" class="edge">
<title>tr&#45;&gt;dt</title>
<path fill="none" stroke="black" d="M758.03,-724.16C742.97,-713.41 721.27,-697.91 704.27,-685.76"/>
<polygon fill="black" stroke="black" points="706.03,-682.72 695.86,-679.76 701.96,-688.42 706.03,-682.72"/>
</g>
<!-- tr&#45;&gt;bx -->
<g id="edge43" class="edge">
<title>tr&#45;&gt;bx</title>
<path fill="none" stroke="black" d="M775.64,-719.87C775.13,-695.67 774.19,-651.21 773.58,-622.39"/>
<polygon fill="black" stroke="black" points="777.07,-622.11 773.36,-612.19 770.08,-622.26 777.07,-622.11"/>
</g>
<!-- mg&#45;&gt;dt -->
<g id="edge46" class="edge">
<title>mg&#45;&gt;dt</title>
<path fill="none" stroke="black" d="M699.96,-864.21C691.56,-827.34 679.73,-739.04 676.88,-694.17"/>
<polygon fill="black" stroke="black" points="680.36,-693.82 676.36,-684.01 673.37,-694.17 680.36,-693.82"/>
</g>
<!-- fj -->
<g id="node56" class="node">
<title>fj</title>
<ellipse fill="none" stroke="red" cx="738" cy="-810" rx="27" ry="18"/>
<text text-anchor="middle" x="738" y="-806.3" font-family="Times,serif" font-size="14.00">fj</text>
</g>
<!-- mg&#45;&gt;fj -->
<g id="edge45" class="edge">
<title>mg&#45;&gt;fj</title>
<path fill="none" stroke="black" d="M713.58,-864.41C717.37,-856.13 722.03,-845.92 726.27,-836.66"/>
<polygon fill="black" stroke="black" points="729.5,-838.02 730.47,-827.47 723.13,-835.11 729.5,-838.02"/>
</g>
<!-- sx&#45;&gt;ds -->
<g id="edge47" class="edge">
<title>sx&#45;&gt;ds</title>
<path fill="none" stroke="black" d="M99.98,-166.96C185.38,-180.7 452,-229.64 452,-305 452,-811 452,-811 452,-811 452,-851.45 460.62,-870.45 433,-900 394.53,-941.15 326.59,-951.13 284.33,-953.12"/>
<polygon fill="black" stroke="black" points="284.05,-949.62 274.18,-953.46 284.29,-956.62 284.05,-949.62"/>
</g>
<!-- lm -->
<g id="node40" class="node">
<title>lm</title>
<ellipse fill="none" stroke="red" cx="37" cy="-90" rx="27" ry="18"/>
<text text-anchor="middle" x="37" y="-86.3" font-family="Times,serif" font-size="14.00">lm</text>
</g>
<!-- sx&#45;&gt;lm -->
<g id="edge48" class="edge">
<title>sx&#45;&gt;lm</title>
<path fill="none" stroke="black" d="M65.42,-144.76C60.94,-136.28 55.35,-125.71 50.32,-116.2"/>
<polygon fill="black" stroke="black" points="53.3,-114.35 45.54,-107.15 47.11,-117.62 53.3,-114.35"/>
</g>
<!-- bx&#45;&gt;qb -->
<g id="edge49" class="edge">
<title>bx&#45;&gt;qb</title>
<path fill="none" stroke="black" d="M764.19,-576.76C759.58,-568.28 753.84,-557.71 748.68,-548.2"/>
<polygon fill="black" stroke="black" points="751.61,-546.27 743.77,-539.15 745.46,-549.61 751.61,-546.27"/>
</g>
<!-- dx&#45;&gt;dt -->
<g id="edge51" class="edge">
<title>dx&#45;&gt;dt</title>
<path fill="none" stroke="black" d="M627.63,-167.82C683.44,-179.95 811,-217.27 811,-305 811,-451 811,-451 811,-451 811,-522.56 849.37,-552.91 809,-612 787.92,-642.85 745.57,-655.75 714.7,-661.14"/>
<polygon fill="black" stroke="black" points="714.07,-657.7 704.73,-662.7 715.15,-664.61 714.07,-657.7"/>
</g>
<!-- bv -->
<g id="node34" class="node">
<title>bv</title>
<ellipse fill="none" stroke="red" cx="545" cy="-90" rx="27" ry="18"/>
<text text-anchor="middle" x="545" y="-86.3" font-family="Times,serif" font-size="14.00">bv</text>
</g>
<!-- dx&#45;&gt;bv -->
<g id="edge50" class="edge">
<title>dx&#45;&gt;bv</title>
<path fill="none" stroke="black" d="M589.63,-145.81C582.09,-136.55 572.3,-124.52 563.81,-114.09"/>
<polygon fill="black" stroke="black" points="566.37,-111.7 557.34,-106.16 560.94,-116.12 566.37,-111.7"/>
</g>
<!-- zf -->
<g id="node37" class="node">
<title>zf</title>
<ellipse fill="none" stroke="red" cx="1522" cy="-450" rx="27" ry="18"/>
<text text-anchor="middle" x="1522" y="-446.3" font-family="Times,serif" font-size="14.00">zf</text>
</g>
<!-- jc&#45;&gt;zf -->
<g id="edge52" class="edge">
<title>jc&#45;&gt;zf</title>
<path fill="none" stroke="black" d="M1522,-503.7C1522,-495.98 1522,-486.71 1522,-478.11"/>
<polygon fill="black" stroke="black" points="1525.5,-478.1 1522,-468.1 1518.5,-478.1 1525.5,-478.1"/>
</g>
<!-- broadcaster -->
<g id="node26" class="node">
<title>broadcaster</title>
<ellipse fill="none" stroke="black" cx="902" cy="-954" rx="51.19" ry="18"/>
<text text-anchor="middle" x="902" y="-950.3" font-family="Times,serif" font-size="14.00">broadcaster</text>
</g>
<!-- broadcaster&#45;&gt;jk -->
<g id="edge55" class="edge">
<title>broadcaster&#45;&gt;jk</title>
<path fill="none" stroke="black" d="M854.94,-946.48C754.84,-932.6 522.64,-900.41 433.11,-888"/>
<polygon fill="black" stroke="black" points="433.55,-884.53 423.16,-886.63 432.58,-891.47 433.55,-884.53"/>
</g>
<!-- broadcaster&#45;&gt;sb -->
<g id="edge53" class="edge">
<title>broadcaster&#45;&gt;sb</title>
<path fill="none" stroke="black" d="M950.07,-947.42C1067.01,-933.84 1364.34,-899.33 1468.38,-887.25"/>
<polygon fill="black" stroke="black" points="1468.87,-890.72 1478.4,-886.09 1468.06,-883.76 1468.87,-890.72"/>
</g>
<!-- broadcaster&#45;&gt;dc -->
<g id="edge54" class="edge">
<title>broadcaster&#45;&gt;dc</title>
<path fill="none" stroke="black" d="M933.42,-939.67C962.66,-927.27 1006,-908.88 1035.32,-896.44"/>
<polygon fill="black" stroke="black" points="1036.84,-899.6 1044.68,-892.47 1034.11,-893.15 1036.84,-899.6"/>
</g>
<!-- broadcaster&#45;&gt;mg -->
<g id="edge56" class="edge">
<title>broadcaster&#45;&gt;mg</title>
<path fill="none" stroke="black" d="M867.41,-940.65C831.05,-927.66 774.27,-907.38 738.65,-894.66"/>
<polygon fill="black" stroke="black" points="739.8,-891.35 729.2,-891.29 737.44,-897.95 739.8,-891.35"/>
</g>
<!-- bd&#45;&gt;cj -->
<g id="edge61" class="edge">
<title>bd&#45;&gt;cj</title>
<path fill="none" stroke="black" d="M1150.68,-439.65C1125.96,-429.24 1084.97,-411.78 1050,-396 1048.2,-395.19 1046.36,-394.35 1044.51,-393.49"/>
<polygon fill="black" stroke="black" points="1045.81,-390.24 1035.26,-389.19 1042.85,-396.58 1045.81,-390.24"/>
</g>
<!-- bd&#45;&gt;nx -->
<g id="edge57" class="edge">
<title>bd&#45;&gt;nx</title>
<path fill="none" stroke="black" d="M1193.31,-462.09C1228.25,-482.83 1296,-531.03 1296,-593 1296,-667 1296,-667 1296,-667 1296,-713.41 1264.53,-759.67 1242.64,-786.25"/>
<polygon fill="black" stroke="black" points="1239.73,-784.27 1235.92,-794.16 1245.06,-788.8 1239.73,-784.27"/>
</g>
<!-- bd&#45;&gt;pz -->
<g id="edge58" class="edge">
<title>bd&#45;&gt;pz</title>
<path fill="none" stroke="black" d="M1175.37,-467.94C1180.55,-504.85 1192.88,-592.83 1199.17,-637.69"/>
<polygon fill="black" stroke="black" points="1195.74,-638.43 1200.6,-647.85 1202.67,-637.46 1195.74,-638.43"/>
</g>
<!-- bd&#45;&gt;dc -->
<g id="edge59" class="edge">
<title>bd&#45;&gt;dc</title>
<path fill="none" stroke="black" d="M1169.29,-467.86C1159.03,-491.4 1135.37,-535.75 1121,-576 1085.98,-674.09 1078.2,-799.29 1072.53,-853.7"/>
<polygon fill="black" stroke="black" points="1069.02,-853.58 1071.38,-863.91 1075.97,-854.37 1069.02,-853.58"/>
</g>
<!-- df -->
<g id="node41" class="node">
<title>df</title>
<ellipse fill="none" stroke="red" cx="1203" cy="-234" rx="27" ry="18"/>
<text text-anchor="middle" x="1203" y="-230.3" font-family="Times,serif" font-size="14.00">df</text>
</g>
<!-- bd&#45;&gt;df -->
<g id="edge62" class="edge">
<title>bd&#45;&gt;df</title>
<path fill="none" stroke="black" d="M1177.88,-432.2C1184.54,-408.38 1196.21,-363.29 1201,-324 1203.51,-303.42 1203.94,-279.97 1203.78,-262.31"/>
<polygon fill="black" stroke="black" points="1207.28,-262.08 1203.62,-252.13 1200.28,-262.19 1207.28,-262.08"/>
</g>
<!-- bd&#45;&gt;qr -->
<g id="edge60" class="edge">
<title>bd&#45;&gt;qr</title>
<path fill="none" stroke="black" d="M1181.18,-467.46C1186.14,-477.8 1192.37,-491.5 1197,-504 1220.14,-566.52 1229.57,-582 1239,-648 1241.26,-663.84 1241.47,-668.19 1239,-684 1237.62,-692.82 1235.02,-702.18 1232.26,-710.54"/>
<polygon fill="black" stroke="black" points="1228.9,-709.55 1228.89,-720.14 1235.51,-711.87 1228.9,-709.55"/>
</g>
<!-- tn -->
<g id="node48" class="node">
<title>tn</title>
<ellipse fill="none" stroke="blue" cx="1086" cy="-378" rx="27" ry="18"/>
<text text-anchor="middle" x="1086" y="-374.3" font-family="Times,serif" font-size="14.00">tn</text>
</g>
<!-- bd&#45;&gt;tn -->
<g id="edge63" class="edge">
<title>bd&#45;&gt;tn</title>
<path fill="none" stroke="black" d="M1156.23,-435.5C1143.35,-425.14 1125.37,-410.67 1110.82,-398.97"/>
<polygon fill="black" stroke="black" points="1112.71,-396 1102.72,-392.46 1108.32,-401.45 1112.71,-396"/>
</g>
<!-- ll -->
<g id="node28" class="node">
<title>ll</title>
<ellipse fill="none" stroke="red" cx="659" cy="-378" rx="27" ry="18"/>
<text text-anchor="middle" x="659" y="-374.3" font-family="Times,serif" font-size="14.00">ll</text>
</g>
<!-- ll&#45;&gt;dt -->
<g id="edge65" class="edge">
<title>ll&#45;&gt;dt</title>
<path fill="none" stroke="black" d="M659.06,-396.07C659.2,-414 659.64,-443 661,-468 664.3,-528.68 671.16,-599.64 675.09,-637.65"/>
<polygon fill="black" stroke="black" points="671.64,-638.31 676.16,-647.9 678.6,-637.59 671.64,-638.31"/>
</g>
<!-- ll&#45;&gt;zb -->
<g id="edge64" class="edge">
<title>ll&#45;&gt;zb</title>
<path fill="none" stroke="black" d="M650.19,-360.76C645.58,-352.28 639.84,-341.71 634.68,-332.2"/>
<polygon fill="black" stroke="black" points="637.61,-330.27 629.77,-323.15 631.46,-333.61 637.61,-330.27"/>
</g>
<!-- fg&#45;&gt;ds -->
<g id="edge66" class="edge">
<title>fg&#45;&gt;ds</title>
<path fill="none" stroke="black" d="M89.64,-323.97C84.69,-350.52 76,-403.56 76,-449 76,-811 76,-811 76,-811 76,-857.27 95.38,-869.31 130,-900 153.76,-921.06 187.28,-935.09 212.36,-943.39"/>
<polygon fill="black" stroke="black" points="211.6,-946.83 222.19,-946.5 213.71,-940.15 211.6,-946.83"/>
</g>
<!-- fg&#45;&gt;xz -->
<g id="edge67" class="edge">
<title>fg&#45;&gt;xz</title>
<path fill="none" stroke="black" d="M88.4,-288.05C86.25,-280.14 83.65,-270.54 81.24,-261.69"/>
<polygon fill="black" stroke="black" points="84.55,-260.52 78.56,-251.79 77.8,-262.36 84.55,-260.52"/>
</g>
<!-- bj -->
<g id="node49" class="node">
<title>bj</title>
<ellipse fill="none" stroke="red" cx="1408" cy="-162" rx="27" ry="18"/>
<text text-anchor="middle" x="1408" y="-158.3" font-family="Times,serif" font-size="14.00">bj</text>
</g>
<!-- jg&#45;&gt;bj -->
<g id="edge68" class="edge">
<title>jg&#45;&gt;bj</title>
<path fill="none" stroke="black" d="M1408,-215.7C1408,-207.98 1408,-198.71 1408,-190.11"/>
<polygon fill="black" stroke="black" points="1411.5,-190.1 1408,-180.1 1404.5,-190.1 1411.5,-190.1"/>
</g>
<!-- vr -->
<g id="node44" class="node">
<title>vr</title>
<ellipse fill="none" stroke="blue" cx="940" cy="-306" rx="27" ry="18"/>
<text text-anchor="middle" x="940" y="-302.3" font-family="Times,serif" font-size="14.00">vr</text>
</g>
<!-- bm&#45;&gt;vr -->
<g id="edge69" class="edge">
<title>bm&#45;&gt;vr</title>
<path fill="none" stroke="black" d="M875.8,-793.19C892.07,-767.79 921,-715.76 921,-667 921,-667 921,-667 921,-449 921,-408.64 928.63,-362.39 934.22,-333.94"/>
<polygon fill="black" stroke="black" points="937.69,-334.45 936.25,-323.95 930.83,-333.06 937.69,-334.45"/>
</g>
<!-- ls&#45;&gt;ds -->
<g id="edge70" class="edge">
<title>ls&#45;&gt;ds</title>
<path fill="none" stroke="black" d="M203.64,-611.97C198.69,-638.52 190,-691.56 190,-737 190,-811 190,-811 190,-811 190,-854.91 213.77,-901.33 230.61,-928.7"/>
<polygon fill="black" stroke="black" points="227.7,-930.65 236.01,-937.22 233.61,-926.9 227.7,-930.65"/>
</g>
<!-- ls&#45;&gt;ng -->
<g id="edge71" class="edge">
<title>ls&#45;&gt;ng</title>
<path fill="none" stroke="black" d="M202.4,-576.05C200.25,-568.14 197.65,-558.54 195.24,-549.69"/>
<polygon fill="black" stroke="black" points="198.55,-548.52 192.56,-539.79 191.8,-550.36 198.55,-548.52"/>
</g>
<!-- qs&#45;&gt;db -->
<g id="edge72" class="edge">
<title>qs&#45;&gt;db</title>
<path fill="none" stroke="black" d="M312.19,-792.76C307.58,-784.28 301.84,-773.71 296.68,-764.2"/>
<polygon fill="black" stroke="black" points="299.61,-762.27 291.77,-755.15 293.46,-765.61 299.61,-762.27"/>
</g>
<!-- bv&#45;&gt;dt -->
<g id="edge74" class="edge">
<title>bv&#45;&gt;dt</title>
<path fill="none" stroke="black" d="M541.64,-107.97C536.69,-134.52 528,-187.56 528,-233 528,-523 528,-523 528,-523 528,-568.59 546.3,-580.23 579,-612 597.83,-630.3 624.25,-644.01 645.06,-652.9"/>
<polygon fill="black" stroke="black" points="643.89,-656.2 654.47,-656.76 646.54,-649.73 643.89,-656.2"/>
</g>
<!-- bs -->
<g id="node39" class="node">
<title>bs</title>
<ellipse fill="none" stroke="red" cx="517" cy="-18" rx="27" ry="18"/>
<text text-anchor="middle" x="517" y="-14.3" font-family="Times,serif" font-size="14.00">bs</text>
</g>
<!-- bv&#45;&gt;bs -->
<g id="edge73" class="edge">
<title>bv&#45;&gt;bs</title>
<path fill="none" stroke="black" d="M538.36,-72.41C535.09,-64.22 531.06,-54.14 527.38,-44.95"/>
<polygon fill="black" stroke="black" points="530.55,-43.45 523.59,-35.47 524.05,-46.05 530.55,-43.45"/>
</g>
<!-- gq -->
<g id="node35" class="node">
<title>gq</title>
<ellipse fill="none" stroke="red" cx="1222" cy="-90" rx="27" ry="18"/>
<text text-anchor="middle" x="1222" y="-86.3" font-family="Times,serif" font-size="14.00">gq</text>
</g>
<!-- gq&#45;&gt;vx -->
<g id="edge76" class="edge">
<title>gq&#45;&gt;vx</title>
<path fill="none" stroke="black" d="M1209.85,-73.81C1202.44,-64.55 1192.82,-52.52 1184.48,-42.09"/>
<polygon fill="black" stroke="black" points="1187.11,-39.78 1178.13,-34.16 1181.64,-44.15 1187.11,-39.78"/>
</g>
<!-- gq&#45;&gt;bd -->
<g id="edge75" class="edge">
<title>gq&#45;&gt;bd</title>
<path fill="none" stroke="black" d="M1235.92,-105.84C1257.35,-130.32 1296,-181.57 1296,-233 1296,-307 1296,-307 1296,-307 1296,-364.13 1238.42,-409.56 1202.05,-432.55"/>
<polygon fill="black" stroke="black" points="1200.01,-429.7 1193.31,-437.91 1203.67,-435.67 1200.01,-429.7"/>
</g>
<!-- db&#45;&gt;qg -->
<g id="edge77" class="edge">
<title>db&#45;&gt;qg</title>
<path fill="none" stroke="black" d="M274.19,-720.76C269.58,-712.28 263.84,-701.71 258.68,-692.2"/>
<polygon fill="black" stroke="black" points="261.61,-690.27 253.77,-683.15 255.46,-693.61 261.61,-690.27"/>
</g>
<!-- zf&#45;&gt;cs -->
<g id="edge79" class="edge">
<title>zf&#45;&gt;cs</title>
<path fill="none" stroke="black" d="M1541,-462.89C1572.95,-484.54 1634,-533.66 1634,-593 1634,-667 1634,-667 1634,-667 1634,-725.49 1573.29,-770.56 1535.17,-793.09"/>
<polygon fill="black" stroke="black" points="1532.95,-790.33 1526.01,-798.33 1536.43,-796.4 1532.95,-790.33"/>
</g>
<!-- lh -->
<g id="node58" class="node">
<title>lh</title>
<ellipse fill="none" stroke="red" cx="1465" cy="-378" rx="27" ry="18"/>
<text text-anchor="middle" x="1465" y="-374.3" font-family="Times,serif" font-size="14.00">lh</text>
</g>
<!-- zf&#45;&gt;lh -->
<g id="edge78" class="edge">
<title>zf&#45;&gt;lh</title>
<path fill="none" stroke="black" d="M1509.63,-433.81C1502.09,-424.55 1492.3,-412.52 1483.81,-402.09"/>
<polygon fill="black" stroke="black" points="1486.37,-399.7 1477.34,-394.16 1480.94,-404.12 1486.37,-399.7"/>
</g>
<!-- pg&#45;&gt;bd -->
<g id="edge81" class="edge">
<title>pg&#45;&gt;bd</title>
<path fill="none" stroke="black" d="M1165.97,-324.19C1167.33,-348.42 1169.84,-392.89 1171.46,-421.68"/>
<polygon fill="black" stroke="black" points="1167.98,-422.08 1172.04,-431.87 1174.97,-421.69 1167.98,-422.08"/>
</g>
<!-- pg&#45;&gt;df -->
<g id="edge80" class="edge">
<title>pg&#45;&gt;df</title>
<path fill="none" stroke="black" d="M1173.81,-288.76C1178.42,-280.28 1184.16,-269.71 1189.32,-260.2"/>
<polygon fill="black" stroke="black" points="1192.54,-261.61 1194.23,-251.15 1186.39,-258.27 1192.54,-261.61"/>
</g>
<!-- bs&#45;&gt;dt -->
<g id="edge82" class="edge">
<title>bs&#45;&gt;dt</title>
<path fill="none" stroke="black" d="M511.67,-35.85C503.8,-62.25 490,-115.08 490,-161 490,-523 490,-523 490,-523 490,-568.59 506.42,-582.29 541,-612 570.07,-636.98 612.22,-650.89 642.08,-658.13"/>
<polygon fill="black" stroke="black" points="641.56,-661.6 652.08,-660.42 643.12,-654.77 641.56,-661.6"/>
</g>
<!-- lm&#45;&gt;ds -->
<g id="edge83" class="edge">
<title>lm&#45;&gt;ds</title>
<path fill="none" stroke="black" d="M29.69,-107.68C18.91,-133.85 0,-186.38 0,-233 0,-811 0,-811 0,-811 0,-856.15 13.45,-872.15 49,-900 96.23,-937 167.13,-948.25 210.04,-951.62"/>
<polygon fill="black" stroke="black" points="209.84,-955.12 220.05,-952.31 210.31,-948.13 209.84,-955.12"/>
</g>
<!-- rs -->
<g id="node50" class="node">
<title>rs</title>
<ellipse fill="none" stroke="red" cx="1222" cy="-162" rx="27" ry="18"/>
<text text-anchor="middle" x="1222" y="-158.3" font-family="Times,serif" font-size="14.00">rs</text>
</g>
<!-- df&#45;&gt;rs -->
<g id="edge84" class="edge">
<title>df&#45;&gt;rs</title>
<path fill="none" stroke="black" d="M1207.6,-216.05C1209.75,-208.14 1212.35,-198.54 1214.76,-189.69"/>
<polygon fill="black" stroke="black" points="1218.2,-190.36 1217.44,-179.79 1211.45,-188.52 1218.2,-190.36"/>
</g>
<!-- cl&#45;&gt;vr -->
<g id="edge85" class="edge">
<title>cl&#45;&gt;vr</title>
<path fill="none" stroke="black" d="M868.56,-503.99C873.46,-474 885.61,-410.14 907,-360 911.23,-350.08 917.15,-339.87 922.82,-331.09"/>
<polygon fill="black" stroke="black" points="925.89,-332.79 928.54,-322.54 920.07,-328.9 925.89,-332.79"/>
</g>
<!-- qm -->
<g id="node43" class="node">
<title>qm</title>
<ellipse fill="none" stroke="red" cx="697" cy="-450" rx="27" ry="18"/>
<text text-anchor="middle" x="697" y="-446.3" font-family="Times,serif" font-size="14.00">qm</text>
</g>
<!-- qm&#45;&gt;dt -->
<g id="edge86" class="edge">
<title>qm&#45;&gt;dt</title>
<path fill="none" stroke="black" d="M695.47,-468.23C692.18,-505.32 684.39,-592.98 680.42,-637.71"/>
<polygon fill="black" stroke="black" points="676.92,-637.58 679.52,-647.85 683.89,-638.2 676.92,-637.58"/>
</g>
<!-- qm&#45;&gt;ll -->
<g id="edge87" class="edge">
<title>qm&#45;&gt;ll</title>
<path fill="none" stroke="black" d="M688.19,-432.76C683.58,-424.28 677.84,-413.71 672.68,-404.2"/>
<polygon fill="black" stroke="black" points="675.61,-402.27 667.77,-395.15 669.46,-405.61 675.61,-402.27"/>
</g>
<!-- rx -->
<g id="node59" class="node">
<title>rx</title>
<ellipse fill="none" stroke="black" cx="940" cy="-234" rx="27" ry="18"/>
<text text-anchor="middle" x="940" y="-230.3" font-family="Times,serif" font-size="14.00">rx</text>
</g>
<!-- vr&#45;&gt;rx -->
<g id="edge88" class="edge">
<title>vr&#45;&gt;rx</title>
<path fill="none" stroke="black" d="M940,-287.7C940,-279.98 940,-270.71 940,-262.11"/>
<polygon fill="black" stroke="black" points="943.5,-262.1 940,-252.1 936.5,-262.1 943.5,-262.1"/>
</g>
<!-- fp -->
<g id="node45" class="node">
<title>fp</title>
<ellipse fill="none" stroke="red" cx="1672" cy="-90" rx="27" ry="18"/>
<text text-anchor="middle" x="1672" y="-86.3" font-family="Times,serif" font-size="14.00">fp</text>
</g>
<!-- fp&#45;&gt;cs -->
<g id="edge90" class="edge">
<title>fp&#45;&gt;cs</title>
<path fill="none" stroke="black" d="M1672,-108.05C1672,-134.71 1672,-187.89 1672,-233 1672,-667 1672,-667 1672,-667 1672,-736.43 1587.19,-779.02 1538.45,-797.76"/>
<polygon fill="black" stroke="black" points="1537.08,-794.53 1528.93,-801.3 1539.52,-801.1 1537.08,-794.53"/>
</g>
<!-- bk -->
<g id="node53" class="node">
<title>bk</title>
<ellipse fill="none" stroke="red" cx="1727" cy="-18" rx="27" ry="18"/>
<text text-anchor="middle" x="1727" y="-14.3" font-family="Times,serif" font-size="14.00">bk</text>
</g>
<!-- fp&#45;&gt;bk -->
<g id="edge89" class="edge">
<title>fp&#45;&gt;bk</title>
<path fill="none" stroke="black" d="M1683.93,-73.81C1691.21,-64.55 1700.66,-52.52 1708.85,-42.09"/>
<polygon fill="black" stroke="black" points="1711.66,-44.18 1715.09,-34.16 1706.16,-39.86 1711.66,-44.18"/>
</g>
<!-- qr&#45;&gt;pz -->
<g id="edge91" class="edge">
<title>qr&#45;&gt;pz</title>
<path fill="none" stroke="black" d="M1217.4,-720.05C1215.25,-712.14 1212.65,-702.54 1210.24,-693.69"/>
<polygon fill="black" stroke="black" points="1213.55,-692.52 1207.56,-683.79 1206.8,-694.36 1213.55,-692.52"/>
</g>
<!-- mp -->
<g id="node47" class="node">
<title>mp</title>
<ellipse fill="none" stroke="red" cx="1014" cy="-522" rx="27" ry="18"/>
<text text-anchor="middle" x="1014" y="-518.3" font-family="Times,serif" font-size="14.00">mp</text>
</g>
<!-- mp&#45;&gt;cj -->
<g id="edge92" class="edge">
<title>mp&#45;&gt;cj</title>
<path fill="none" stroke="black" d="M1014,-503.87C1014,-479.67 1014,-435.21 1014,-406.39"/>
<polygon fill="black" stroke="black" points="1017.5,-406.19 1014,-396.19 1010.5,-406.19 1017.5,-406.19"/>
</g>
<!-- mp&#45;&gt;bd -->
<g id="edge93" class="edge">
<title>mp&#45;&gt;bd</title>
<path fill="none" stroke="black" d="M1036.11,-511.27C1063.52,-499.2 1110.42,-478.55 1141.57,-464.84"/>
<polygon fill="black" stroke="black" points="1143.34,-467.88 1151.08,-460.65 1140.52,-461.48 1143.34,-467.88"/>
</g>
<!-- tn&#45;&gt;vr -->
<g id="edge94" class="edge">
<title>tn&#45;&gt;vr</title>
<path fill="none" stroke="black" d="M1064.77,-366.82C1039.9,-354.9 998.52,-335.06 970.28,-321.52"/>
<polygon fill="black" stroke="black" points="971.79,-318.36 961.26,-317.19 968.76,-324.67 971.79,-318.36"/>
</g>
<!-- bj&#45;&gt;cs -->
<g id="edge95" class="edge">
<title>bj&#45;&gt;cs</title>
<path fill="none" stroke="black" d="M1394.08,-177.84C1372.65,-202.32 1334,-253.57 1334,-305 1334,-667 1334,-667 1334,-667 1334,-713.04 1352.63,-725.37 1387,-756 1410.98,-777.37 1444.99,-791.4 1470.35,-799.63"/>
<polygon fill="black" stroke="black" points="1469.35,-802.99 1479.94,-802.6 1471.42,-796.3 1469.35,-802.99"/>
</g>
<!-- bj&#45;&gt;fp -->
<g id="edge96" class="edge">
<title>bj&#45;&gt;fp</title>
<path fill="none" stroke="black" d="M1432.84,-154.41C1480.23,-141.85 1583.63,-114.43 1637.63,-100.11"/>
<polygon fill="black" stroke="black" points="1638.65,-103.46 1647.42,-97.52 1636.86,-96.7 1638.65,-103.46"/>
</g>
<!-- rs&#45;&gt;bd -->
<g id="edge98" class="edge">
<title>rs&#45;&gt;bd</title>
<path fill="none" stroke="black" d="M1228.89,-179.86C1232.7,-190.12 1237.06,-203.59 1239,-216 1241.47,-231.81 1240.85,-236.11 1239,-252 1231.39,-317.32 1229.85,-335.12 1205,-396 1200.96,-405.9 1195.23,-416.1 1189.73,-424.88"/>
<polygon fill="black" stroke="black" points="1186.68,-423.16 1184.17,-433.45 1192.55,-426.97 1186.68,-423.16"/>
</g>
<!-- rs&#45;&gt;gq -->
<g id="edge97" class="edge">
<title>rs&#45;&gt;gq</title>
<path fill="none" stroke="black" d="M1222,-143.7C1222,-135.98 1222,-126.71 1222,-118.11"/>
<polygon fill="black" stroke="black" points="1225.5,-118.1 1222,-108.1 1218.5,-118.1 1225.5,-118.1"/>
</g>
<!-- qb&#45;&gt;qm -->
<g id="edge99" class="edge">
<title>qb&#45;&gt;qm</title>
<path fill="none" stroke="black" d="M726.19,-504.76C721.58,-496.28 715.84,-485.71 710.68,-476.2"/>
<polygon fill="black" stroke="black" points="713.61,-474.27 705.77,-467.15 707.46,-477.61 713.61,-474.27"/>
</g>
<!-- zb&#45;&gt;gz -->
<g id="edge100" class="edge">
<title>zb&#45;&gt;gz</title>
<path fill="none" stroke="black" d="M616.4,-288.05C614.25,-280.14 611.65,-270.54 609.24,-261.69"/>
<polygon fill="black" stroke="black" points="612.55,-260.52 606.56,-251.79 605.8,-262.36 612.55,-260.52"/>
</g>
<!-- bk&#45;&gt;cs -->
<g id="edge101" class="edge">
<title>bk&#45;&gt;cs</title>
<path fill="none" stroke="black" d="M1737.6,-34.84C1753.59,-60.28 1782,-112.36 1782,-161 1782,-667 1782,-667 1782,-667 1782,-707.45 1791.71,-727.51 1763,-756 1732.25,-786.51 1605.71,-800.89 1542,-806.3"/>
<polygon fill="black" stroke="black" points="1541.66,-802.82 1531.98,-807.12 1542.23,-809.8 1541.66,-802.82"/>
</g>
<!-- dr&#45;&gt;vr -->
<g id="edge102" class="edge">
<title>dr&#45;&gt;vr</title>
<path fill="none" stroke="black" d="M1106.72,-657.64C1059.31,-641.6 959,-598.7 959,-523 959,-523 959,-523 959,-449 959,-408.64 951.37,-362.39 945.78,-333.94"/>
<polygon fill="black" stroke="black" points="949.17,-333.06 943.75,-323.95 942.31,-334.45 949.17,-333.06"/>
</g>
<!-- lp&#45;&gt;sh -->
<g id="edge103" class="edge">
<title>lp&#45;&gt;sh</title>
<path fill="none" stroke="black" d="M1705.48,-726.82C1680.27,-714.9 1638.32,-695.06 1609.7,-681.52"/>
<polygon fill="black" stroke="black" points="1611.08,-678.3 1600.55,-677.19 1608.09,-684.63 1611.08,-678.3"/>
</g>
<!-- fj&#45;&gt;dt -->
<g id="edge104" class="edge">
<title>fj&#45;&gt;dt</title>
<path fill="none" stroke="black" d="M731,-792.43C720.66,-767.96 701.2,-721.91 688.96,-692.94"/>
<polygon fill="black" stroke="black" points="692.07,-691.31 684.96,-683.46 685.62,-694.04 692.07,-691.31"/>
</g>
<!-- fj&#45;&gt;tr -->
<g id="edge105" class="edge">
<title>fj&#45;&gt;tr</title>
<path fill="none" stroke="black" d="M746.81,-792.76C751.42,-784.28 757.16,-773.71 762.32,-764.2"/>
<polygon fill="black" stroke="black" points="765.54,-765.61 767.23,-755.15 759.39,-762.27 765.54,-765.61"/>
</g>
<!-- rv&#45;&gt;bd -->
<g id="edge106" class="edge">
<title>rv&#45;&gt;bd</title>
<path fill="none" stroke="black" d="M1151.02,-575.87C1155.28,-551.67 1163.1,-507.21 1168.18,-478.39"/>
<polygon fill="black" stroke="black" points="1171.69,-478.64 1169.97,-468.19 1164.79,-477.43 1171.69,-478.64"/>
</g>
<!-- rv&#45;&gt;mp -->
<g id="edge107" class="edge">
<title>rv&#45;&gt;mp</title>
<path fill="none" stroke="black" d="M1127.36,-582.22C1105.09,-570.59 1069.43,-551.96 1044.06,-538.7"/>
<polygon fill="black" stroke="black" points="1045.37,-535.44 1034.89,-533.91 1042.13,-541.64 1045.37,-535.44"/>
</g>
<!-- lh&#45;&gt;kd -->
<g id="edge109" class="edge">
<title>lh&#45;&gt;kd</title>
<path fill="none" stroke="black" d="M1456.19,-360.76C1451.58,-352.28 1445.84,-341.71 1440.68,-332.2"/>
<polygon fill="black" stroke="black" points="1443.61,-330.27 1435.77,-323.15 1437.46,-333.61 1443.61,-330.27"/>
</g>
<!-- lh&#45;&gt;cs -->
<g id="edge108" class="edge">
<title>lh&#45;&gt;cs</title>
<path fill="none" stroke="black" d="M1461.64,-395.97C1456.69,-422.52 1448,-475.56 1448,-521 1448,-667 1448,-667 1448,-667 1448,-710.91 1471.77,-757.33 1488.61,-784.7"/>
<polygon fill="black" stroke="black" points="1485.7,-786.65 1494.01,-793.22 1491.61,-782.9 1485.7,-786.65"/>
</g>
</g>
</svg>
