P1
43 6
0100001110000110100101111010010100001001000
0100001001000010100101000010100100001001000
0100001110000010111101110011000100001111000
0100001001000010100101000010100100001001000
0100001001010010100101000010100100001001000
0111101110001100100101111010010111101001000
